<?xml version="1.0" encoding="utf-8"?>
<!-- Generator: Adobe Illustrator 26.0.1, SVG Export Plug-In . SVG Version: 6.00 Build 0)  -->
<svg version="1.1" xmlns="http://www.w3.org/2000/svg" xmlns:xlink="http://www.w3.org/1999/xlink" x="0px" y="0px"
	 viewBox="0 0 1015.06 446.33" style="enable-background:new 0 0 1015.06 446.33;" xml:space="preserve">
<style type="text/css">
	.st0{fill:url(#SVGID_1_);}
	.st1{fill:none;}
	.st2{fill:#231F20;}
</style>
<g id="Zuno_Identity_Gradient_RGB_Positive">
	<linearGradient id="SVGID_1_" gradientUnits="userSpaceOnUse" x1="166.6913" y1="458.0659" x2="835.2214" y2="-10.0439">
		<stop  offset="0" style="stop-color:#80E1D7"/>
		<stop  offset="1" style="stop-color:#24B4B3"/>
	</linearGradient>
	<path class="st0" d="M129.07,321.95h89.69v38.61h-98.44c-41.37,0-57.7-53.6-23.35-76.66l72.23-48.5c3.31-2.23,1.75-7.4-2.24-7.42
		l-81.19-0.41v-38.56l90.21-0.02c41.34-0.01,57.7,53.52,23.42,76.62l-72.59,48.92C123.49,316.77,125.07,321.95,129.07,321.95z
		 M373.64,281.19c-0.44,30.03-13.31,42.9-36.91,42.9c0,0,0,0,0,0c-23.59,0-36.46-12.87-36.91-42.9c-0.24-16.28,0-92.18,0-92.18
		l-42.46,0v93.06c0,48.46,23.59,80.63,79.36,80.63h0c55.77,0,79.36-32.18,79.36-80.63v-93.06l-42.46,0
		C373.64,189.01,373.89,264.91,373.64,281.19z M538.37,186.81L538.37,186.81L538.37,186.81c-55.77,0-79.36,32.17-79.36,80.63v93.11
		h42.46c0,0-0.24-75.96,0-92.23c0.44-30.03,13.31-42.9,36.91-42.9l0,0v0c23.59,0,36.46,12.87,36.91,42.9c0.24,16.28,0,92.23,0,92.23
		h42.46v-93.11C617.73,218.99,594.14,186.81,538.37,186.81z M912.8,181.9c-13.1,13.1-31.23,18.59-48.25,16.09
		c-12.69-2.14-24.08-0.43-33.87,9.37c-11.39,11.39-11.84,24.9-7.08,39.21c10.4,30.63,3.13,66.1-21.29,90.52
		c-34.26,34.26-89.93,34.13-124.19-0.13c-34.26-34.26-34.38-89.93-0.13-124.19c24.42-24.42,59.88-31.69,90.52-21.29
		c14.31,4.76,27.82,4.31,39.21-7.08c9.79-9.79,11.51-21.18,9.37-33.87c-2.5-17.02,2.99-35.15,16.09-48.25
		c21.99-21.99,57.64-21.99,79.63-0.01C934.79,124.26,934.79,159.91,912.8,181.9z M786.93,274.73c0-26.93-20.88-48.75-46.63-48.75
		c-25.75,0-46.63,21.83-46.63,48.75c0,26.93,20.88,48.75,46.63,48.75C766.06,323.49,786.93,301.66,786.93,274.73z M888.29,126.58
		c-8.5-8.68-22.28-8.68-30.78,0c-8.5,8.68-8.5,22.76,0,31.45c8.5,8.68,22.28,8.68,30.78,0
		C896.79,149.34,896.79,135.26,888.29,126.58z M912.29,102.45C912.29,102.45,912.3,102.45,912.29,102.45
		c0.01,0.01,0.01,0.01,0.02,0.02L912.29,102.45z"/>
	<rect class="st1" width="1015.06" height="446.33"/>
</g>
</svg>
